<svg width="15" height="14" viewBox="0 0 15 14" fill="none" xmlns="http://www.w3.org/2000/svg">
<path d="M13.7219 5.16485L9.75474 4.58829L7.9813 0.992975C7.93287 0.894537 7.85318 0.81485 7.75474 0.766412C7.50787 0.644537 7.20787 0.7461 7.08443 0.992975L5.31099 4.58829L1.3438 5.16485C1.23443 5.18047 1.13443 5.23204 1.05787 5.31016C0.965306 5.4053 0.914302 5.53329 0.91606 5.66601C0.917818 5.79873 0.972194 5.92532 1.06724 6.01797L3.93755 8.81641L3.25943 12.768C3.24353 12.8599 3.2537 12.9544 3.28879 13.0409C3.32388 13.1273 3.38249 13.2022 3.45797 13.257C3.53345 13.3118 3.62278 13.3444 3.71583 13.351C3.80889 13.3577 3.90193 13.3381 3.98443 13.2945L7.53287 11.4289L11.0813 13.2945C11.1782 13.3461 11.2907 13.3633 11.3985 13.3445C11.6704 13.2977 11.8532 13.0399 11.8063 12.768L11.1282 8.81641L13.9985 6.01797C14.0766 5.94141 14.1282 5.84141 14.1438 5.73204C14.186 5.4586 13.9954 5.20547 13.7219 5.16485Z" fill="#FF9900"/>
</svg>
